<svg width="170" height="173" viewBox="0 0 170 173" fill="none" xmlns="http://www.w3.org/2000/svg">
<path d="M156.047 128.384H127.513C126.685 128.384 126.013 129.056 126.013 129.884V158.971C122.233 156.756 118.49 154.561 114.755 152.371C110.235 149.721 105.725 147.077 101.175 144.41C100.829 144.207 100.416 144.152 100.028 144.256C99.6404 144.36 99.3106 144.615 99.1123 144.963C94.3669 153.316 89.6832 161.56 84.9041 169.973C84.1394 168.639 83.4085 167.362 82.6823 166.082L82.6819 166.081C81.8263 164.574 80.9697 163.069 80.1136 161.564C77.2374 156.509 74.3652 151.461 71.5437 146.381L71.5425 146.379C71.1421 145.661 70.5274 144.792 69.4615 144.542C68.4322 144.301 67.5014 144.768 66.8598 145.15L66.8588 145.151C60.525 148.925 54.1644 152.654 47.7995 156.385C46.4551 157.174 45.1105 157.962 43.7659 158.751V129.874C43.7659 129.046 43.0943 128.374 42.2659 128.374H13.7479C14.4963 127.053 15.2442 125.732 15.992 124.411C19.7214 117.822 23.4481 111.238 27.2257 104.685L27.226 104.685C27.6525 103.944 28.0623 102.971 27.7271 101.932C27.4093 100.947 26.5609 100.38 25.9336 100.016L25.9327 100.015C19.6392 96.3661 13.3703 92.6755 7.09749 88.9826C5.69047 88.1542 4.28325 87.3258 2.87554 86.4976C3.23838 86.2835 3.59759 86.0714 3.95383 85.8611C5.65273 84.8581 7.28388 83.8951 8.91798 82.935C10.4317 82.046 11.9422 81.1557 13.4515 80.2661C17.6187 77.8098 21.7765 75.3591 25.9663 72.9578L25.9667 72.9575C26.6652 72.5568 27.5108 71.9483 27.774 70.9059C28.0322 69.8828 27.5975 68.9451 27.2063 68.2649L27.206 68.2645C23.6315 62.0554 20.1015 55.8212 16.5676 49.5803C15.6487 47.9575 14.7295 46.3342 13.8093 44.7109H42.1722C43.0006 44.7109 43.6722 44.0393 43.6722 43.2109V14.1736C44.9279 14.9102 46.1835 15.6463 47.4389 16.3822C53.8893 20.1633 60.3337 23.9409 66.7463 27.7765C67.4789 28.215 68.4842 28.6972 69.5732 28.3769C70.6321 28.0655 71.2373 27.1432 71.6398 26.4197C74.9676 20.4453 78.3506 14.5074 81.7378 8.56215C82.792 6.71182 83.8466 4.86078 84.9 3.0077C88.9193 10.0819 92.8869 17.0663 96.9026 24.1355L99.1089 28.0194C99.3072 28.3685 99.6371 28.6234 100.025 28.7274C100.412 28.8313 100.826 28.7755 101.172 28.5725C106.687 25.339 112.161 22.1298 117.677 18.8963C120.408 17.2954 123.149 15.6886 125.91 14.0698V43.0067C125.91 43.8352 126.581 44.5067 127.41 44.5067H156.091C154.348 47.5839 152.623 50.6306 150.903 53.6678C147.846 59.0657 144.806 64.4332 141.718 69.8865C141.315 70.599 141.557 71.5033 142.263 71.9184C146.737 74.5499 151.2 77.1742 155.689 79.8142C159.447 82.0238 163.224 84.2444 167.041 86.4896C158.707 91.3901 150.547 96.1882 142.263 101.061C141.557 101.476 141.315 102.381 141.718 103.093C145.069 109.009 148.382 114.857 151.723 120.753C153.157 123.285 154.597 125.825 156.047 128.384Z" fill="#FFFF00" stroke="black" stroke-width="3" stroke-linejoin="round"/>
</svg>
