<svg width="86" height="88" viewBox="0 0 86 88" fill="none" xmlns="http://www.w3.org/2000/svg">
<path d="M77.6765 64.5684H64.5068C63.6783 64.5684 63.0068 65.2399 63.0068 66.0684V79.5705C61.4735 78.6668 59.9492 77.7681 58.4273 76.8709C56.1401 75.5225 53.8585 74.1774 51.5605 72.8232C51.2137 72.6189 50.7993 72.5625 50.4104 72.6667C50.0216 72.771 49.691 73.0272 49.493 73.3776C47.3058 77.2486 45.1445 81.0736 42.9491 84.9597C42.7895 84.6787 42.6315 84.3998 42.474 84.1204L42.4736 84.1197C42.04 83.3519 41.6063 82.5855 41.173 81.8196C39.7183 79.2488 38.2677 76.6855 36.8423 74.105L36.8412 74.103C36.6238 73.7108 36.1785 73.012 35.3104 72.8073C34.4775 72.6108 33.7755 73.0021 33.4411 73.2021L33.4402 73.2027C30.2381 75.1214 27.0229 77.0166 23.8029 78.9147C23.4958 79.0957 23.1887 79.2767 22.8816 79.4578V66.0632C22.8816 65.2347 22.21 64.5632 21.3816 64.5632H8.21936C8.39227 64.2561 8.56514 63.949 8.73798 63.642C10.6243 60.2911 12.5077 56.9456 14.4169 53.6152L14.4172 53.6146C14.6545 53.2004 15.002 52.4652 14.7328 51.6259C14.4802 50.8384 13.8211 50.4303 13.4947 50.2397L13.4938 50.2391C10.3124 48.3842 7.14372 46.5085 3.97064 44.6301C3.61461 44.4194 3.25852 44.2086 2.90235 43.9978C3.57591 43.598 4.23212 43.2088 4.88979 42.8203C5.6579 42.3668 6.42349 41.913 7.18785 41.46C9.29471 40.2113 11.3923 38.9681 13.5075 37.7491L13.508 37.7488C13.8916 37.5275 14.5587 37.0859 14.7695 36.2462C14.975 35.4274 14.6171 34.7264 14.4074 34.36L14.4072 34.3595C12.6004 31.2038 10.8164 28.0359 9.02904 24.8619C8.76973 24.4014 8.51034 23.9408 8.2508 23.4801H21.3342C22.1626 23.4801 22.8342 22.8085 22.8342 21.9801V8.50357C23.0968 8.65839 23.3594 8.81318 23.622 8.96794C26.8847 10.891 30.141 12.8104 33.3818 14.7595C33.7682 14.992 34.5266 15.4013 35.4071 15.1409C36.255 14.8902 36.6847 14.1665 36.8905 13.7945C38.572 10.7591 40.2808 7.7432 41.9938 4.72003C42.3121 4.15824 42.6305 3.5962 42.949 3.03373C44.7414 6.20596 46.5175 9.34986 48.3123 12.5268L49.4913 14.6136C49.6893 14.9642 50.02 15.2204 50.4089 15.3246C50.7978 15.4289 51.2122 15.3724 51.5591 15.1679C54.3483 13.5235 57.117 11.8914 59.9068 10.2469C60.9192 9.65019 61.9344 9.0518 62.9543 8.45059V21.8763C62.9543 22.7047 63.6259 23.3763 64.4543 23.3763H77.6991C77.034 24.5571 76.3731 25.7305 75.7138 26.901C74.16 29.6596 72.6151 32.4024 71.046 35.1892C70.6457 35.9002 70.8872 36.8008 71.5895 37.2162C73.8451 38.5503 76.1001 39.8836 78.3686 41.2248C79.9223 42.1434 81.4822 43.0658 83.053 43.9946C79.2073 46.2684 75.4248 48.505 71.5895 50.7734C70.8871 51.1889 70.6457 52.0896 71.0461 52.8006C72.7406 55.8092 74.4163 58.7829 76.1059 61.7812C76.6278 62.7073 77.151 63.6358 77.6765 64.5684Z" fill="white" stroke="black" stroke-width="3" stroke-linejoin="round"/>
</svg>
