<svg width="180" height="182" viewBox="0 0 180 182" fill="none" xmlns="http://www.w3.org/2000/svg">
<path d="M142.263 71.9184C141.557 71.5033 141.315 70.599 141.718 69.8865C144.823 64.402 147.88 59.0044 150.955 53.5753C152.658 50.5688 154.366 47.5526 156.091 44.5067H127.41C126.581 44.5067 125.91 43.8352 125.91 43.0067V14.0698C123.151 15.6874 120.412 17.293 117.683 18.8927C112.165 22.1275 106.689 25.3378 101.172 28.5725C100.826 28.7755 100.412 28.8313 100.025 28.7274C99.6371 28.6234 99.3072 28.3685 99.1089 28.0194L96.7854 23.9291C92.8096 16.9303 88.8802 10.0131 84.9 3.0077C83.8465 4.8609 82.7918 6.71206 81.7376 8.56252C78.3506 14.5073 74.9679 20.4448 71.6403 26.4188L142.263 71.9184ZM142.263 71.9184C146.737 74.5499 151.2 77.1741 155.689 79.8141C159.447 82.0237 163.224 84.2444 167.041 86.4896M142.263 71.9184L167.041 86.4896M167.041 86.4896C158.707 91.39 150.547 96.1882 142.263 101.061C141.557 101.476 141.315 102.381 141.718 103.093C145.085 109.037 148.413 114.912 151.77 120.836C153.189 123.34 154.613 125.853 156.047 128.384H127.513C126.685 128.384 126.013 129.056 126.013 129.884V158.971C122.241 156.76 118.505 154.57 114.776 152.384C110.248 149.729 105.731 147.081 101.175 144.41C100.829 144.207 100.416 144.152 100.028 144.256C99.6404 144.36 99.3106 144.615 99.1123 144.963C94.3669 153.316 89.6832 161.56 84.9041 169.973C84.1394 168.639 83.4085 167.362 82.6823 166.082L82.6819 166.081C81.826 164.574 80.9692 163.068 80.1127 161.562C77.2368 156.508 74.3649 151.461 71.5437 146.381L71.5425 146.379C71.1421 145.661 70.5274 144.792 69.4615 144.542C68.4322 144.301 67.5014 144.768 66.8598 145.15L66.8588 145.151C60.5249 148.925 54.1643 152.654 47.7994 156.385C46.455 157.174 45.1104 157.962 43.7659 158.751V129.874C43.7659 129.046 43.0943 128.374 42.2659 128.374H13.7479C14.4966 127.053 15.2447 125.731 15.9927 124.409C19.7219 117.821 23.4484 111.238 27.2257 104.685L27.226 104.685C27.6525 103.944 28.0623 102.971 27.7271 101.932C27.4093 100.947 26.5609 100.38 25.9336 100.016L25.9327 100.015C19.6395 96.3663 13.3707 92.6758 7.0982 88.983C5.69094 88.1545 4.28349 87.3259 2.87553 86.4976C3.23874 86.2832 3.59832 86.0709 3.95491 85.8604C5.65342 84.8577 7.28423 83.8949 8.91798 82.935C10.4317 82.046 11.9423 81.1557 13.4516 80.266C17.6188 77.8098 21.7765 75.359 25.9663 72.9578L25.9667 72.9575C26.6652 72.5568 27.5108 71.9483 27.774 70.9059C28.0322 69.8828 27.5975 68.9451 27.2063 68.2649L27.206 68.2645C23.6318 62.0559 20.102 55.8222 16.5684 49.5817C15.6492 47.9585 14.7298 46.3347 13.8093 44.7109H42.1722C43.0006 44.7109 43.6722 44.0393 43.6722 43.2109V14.1736C44.9279 14.9102 46.1835 15.6463 47.4389 16.3822C53.8893 20.1633 60.3337 23.9409 66.7463 27.7765C67.4789 28.215 68.4842 28.6972 69.5732 28.3769C70.6321 28.0655 71.2373 27.1432 71.6398 26.4197L167.041 86.4896Z" fill="#FFFF00" stroke="black" stroke-width="3" stroke-linejoin="round"/>
<path d="M165.589 131.216C164.887 130.801 164.646 129.9 165.046 129.189C166.62 126.394 168.169 123.643 169.728 120.876C170.382 119.714 171.039 118.549 171.699 117.376H158.454C157.626 117.376 156.954 116.705 156.954 115.876V102.451C155.938 103.05 154.927 103.646 153.918 104.24C151.124 105.887 148.352 107.521 145.559 109.168C145.212 109.372 144.798 109.429 144.409 109.325C144.02 109.22 143.689 108.964 143.491 108.614L142.317 106.536C140.521 103.356 138.743 100.209 136.949 97.0337C136.631 97.5961 136.312 98.1581 135.994 98.7199C134.281 101.743 132.572 104.759 130.891 107.794C130.685 108.167 130.255 108.89 129.407 109.141C128.527 109.401 127.769 108.992 127.382 108.76L165.589 131.216ZM165.589 131.216C167.848 132.552 170.105 133.887 172.377 135.23C173.928 136.147 175.485 137.067 177.053 137.995M165.589 131.216L177.053 137.995M101.376 160.063H113.882H115.382V161.563V174.342C115.882 174.047 116.382 173.753 116.882 173.458M101.376 160.063L166.353 129.925C168.615 131.263 170.867 132.594 173.132 133.933C174.918 134.989 176.712 136.05 178.527 137.123C178.034 137.415 177.543 137.705 177.053 137.995M101.376 160.063C101.384 160.046 101.393 160.029 101.404 160.011L101.405 160.009C101.677 159.527 101.948 159.045 102.219 158.563M101.376 160.063L95.4354 137.124C95.5103 137.173 95.5782 137.215 95.6512 137.258L95.657 137.261C96.0723 137.507 96.4874 137.752 96.9023 137.998M116.882 173.458V175.199C117.442 174.869 118.002 174.538 118.563 174.208C121.783 172.31 125.004 170.411 128.211 168.489C128.839 168.114 129.157 168.159 129.529 168.83C130.959 171.418 132.415 173.991 133.87 176.563C134.303 177.328 134.735 178.092 135.167 178.857C135.47 179.394 135.775 179.93 136.089 180.482C136.376 179.973 136.663 179.466 136.949 178.96M116.882 173.458C117.189 173.277 117.496 173.096 117.803 172.915C121.023 171.016 124.238 169.121 127.44 167.203L127.441 167.202C127.775 167.002 128.477 166.611 129.31 166.807C130.178 167.012 130.624 167.711 130.841 168.103L130.842 168.105C132.268 170.685 133.718 173.249 135.173 175.819C135.606 176.585 136.04 177.352 136.474 178.12L136.474 178.12C136.632 178.4 136.789 178.679 136.949 178.96M116.882 173.458V160.063C116.882 159.235 116.21 158.563 115.382 158.563H102.219M136.949 178.96C137.197 179.396 137.449 179.838 137.709 180.295C137.744 180.356 137.779 180.417 137.814 180.478C139.914 176.762 141.979 173.107 144.061 169.422C144.053 169.417 144.045 169.412 144.037 169.408L144.799 168.116C144.799 168.116 144.799 168.116 144.799 168.116C144.799 168.116 144.799 168.116 144.799 168.116L146.105 168.853C146.1 168.861 146.096 168.869 146.091 168.877C147.959 169.978 149.814 171.071 151.672 172.167C153.442 173.211 155.216 174.256 157.007 175.312V173.57M136.949 178.96C139.145 175.074 141.306 171.249 143.493 167.378C143.691 167.027 144.022 166.771 144.41 166.667C144.799 166.562 145.214 166.619 145.56 166.823C147.859 168.178 150.143 169.524 152.432 170.873C153.952 171.77 155.475 172.668 157.007 173.57M157.007 173.57C157.506 173.865 158.006 174.159 158.507 174.455V161.568V160.068H160.007H172.522C172.239 159.567 171.958 159.067 171.677 158.568M157.007 173.57V160.068C157.007 159.24 157.678 158.568 158.507 158.568H171.677M171.677 158.568H173.398C172.736 157.394 172.078 156.226 171.423 155.062C169.73 152.058 168.051 149.079 166.353 146.065C170.424 143.657 174.436 141.285 178.526 138.866C178.034 138.575 177.543 138.284 177.053 137.995M171.677 158.568C171.151 157.636 170.628 156.707 170.106 155.781C168.416 152.783 166.741 149.809 165.046 146.801C164.646 146.09 164.887 145.189 165.589 144.773C169.425 142.505 173.207 140.268 177.053 137.995M177.053 137.995L127.382 108.759C124.141 106.81 120.885 104.891 117.622 102.968C117.359 102.813 117.097 102.658 116.834 102.504V115.98C116.834 116.809 116.163 117.48 115.334 117.48H102.251C102.51 117.941 102.77 118.401 103.029 118.862C104.816 122.036 106.6 125.204 108.407 128.36L108.407 128.36C108.617 128.726 108.975 129.427 108.769 130.246C108.559 131.086 107.892 131.528 107.508 131.749L107.508 131.749C105.392 132.968 103.295 134.211 101.188 135.46C100.423 135.913 99.6579 136.367 98.8898 136.82C98.2321 137.209 97.5759 137.598 96.9023 137.998M102.219 158.563C102.392 158.256 102.565 157.949 102.738 157.642C104.624 154.291 106.508 150.946 108.417 147.615L108.417 147.615C108.654 147.2 109.002 146.465 108.733 145.626C108.48 144.838 107.821 144.43 107.495 144.24L107.494 144.239C104.312 142.384 101.143 140.508 97.9703 138.63C97.6144 138.419 97.2584 138.209 96.9023 137.998M102.219 158.563H100.498C100.809 158.012 101.119 157.46 101.43 156.908C103.316 153.557 105.203 150.205 107.116 146.869C107.503 146.193 107.358 145.897 106.738 145.535C103.552 143.677 100.378 141.798 97.2042 139.92C96.6134 139.57 96.0227 139.22 95.4319 138.871C95.7546 138.679 96.071 138.491 96.3827 138.306C96.5572 138.203 96.7304 138.1 96.9023 137.998M115.667 175.881C115.834 175.803 115.964 175.741 116.087 175.668L115.382 176.017C115.489 175.965 115.583 175.921 115.667 175.881Z" fill="white" stroke="black" stroke-width="3" stroke-linejoin="round"/>
</svg>
